<?xml version="1.0" encoding="UTF-8"?>
<svg id="Layer_1" data-name="Layer 1" xmlns="http://www.w3.org/2000/svg" viewBox="0 0 158.75 183.92">
  <defs>
    <style>
      .cls-1 {
        fill: #d3b846;
      }
    </style>
  </defs>
  <path class="cls-1" d="M111.72,46.04c-12.07-12.34-26.8-16.85-43.56-12.69-30.55,7.59-43.87,42.32-27.82,68.4,2.2,3.57,4.77,6.91,7.24,10.3,3.14,4.32,4.83,9.05,4.67,14.44-.1,3.02.02,6.04-.02,9.05-.02,2.2.75,4.08,2.14,5.77.39.47.61,1.2.63,1.82.06,5.79,0,11.6.06,17.42.06,5.1,2.94,7.97,7.97,8.16.27,0,.53.04.8.06,1.67,8.97,6.79,13.58,15.05,13.56,8.73-.02,13.66-4.32,15.38-13.5.73-.1,1.37-.18,2-.27,4.16-.65,6.63-3.32,6.69-7.55.1-5.85.06-11.71.06-17.54,0-.9.18-1.63.88-2.3,1.28-1.26,1.86-2.92,1.88-4.71.02-3.57.04-7.12.04-10.69,0-4.77,1.49-9.05,4.28-12.91,1.73-2.41,3.51-4.79,5.24-7.2,5.53-7.67,8.89-16.17,9.28-25.64.53-13.11-3.71-24.62-12.89-34ZM82.38,136.37h-6.79v-3.39c0-6.71-.06-13.42.02-20.13.04-4.49-.12-8.93-1.63-13.09,1.59-.63,3.08-1.24,4.59-1.82.2-.08.51-.04.73.04,1.55.61,3.1,1.26,4.65,1.9-.41,1.86-.92,3.87-1.26,5.91-.22,1.24-.29,2.55-.29,3.81-.02,8.22-.02,16.44-.02,24.66v2.1ZM95,144.38v4.45h-32.02v-4.45h32.02ZM80.13,174.5c-4.73.31-7.67-1.73-8.1-5.77h13.97c.02,3.18-2.41,5.57-5.87,5.77ZM95.02,160.94h-31.98v-4.41h31.98v4.41ZM108.91,100.84c-1.75,2.39-3.51,4.79-5.28,7.18-3.9,5.3-5.61,11.32-5.81,17.82-.1,3.47-.02,6.93-.02,10.5h-7.4c-.06-.45-.16-.92-.16-1.41,0-8.4-.04-16.83.04-25.23.06-6.24,2.3-11.67,6.51-16.27,1.06-1.16,1.59-2.45,1.14-4.02-.88-3.14-4.45-4.1-6.83-1.75-1.16,1.14-2.08,2.53-3.04,3.87-.51.71-.98,1.18-1.88.77-.24-.1-.53-.08-.82-.12-1.45-.14-2.28-.63-2.35-2.39-.1-2.35-1.92-3.79-4.1-3.75-2.22.04-3.85,1.49-3.98,3.87-.08,1.41-.71,1.82-1.92,2.08-2.18.49-2.16.53-3.51-1.24-.75-.98-1.47-1.98-2.32-2.88-1.75-1.82-4.26-2.02-5.91-.57-1.65,1.45-1.77,4.02-.08,5.91,4.83,5.4,6.75,11.75,6.63,18.91-.12,7.48-.02,14.99-.02,22.49v1.75h-7.59v-1.59c-.06-3.94-.04-7.85-.24-11.79-.35-6.32-2.88-11.79-6.71-16.76-3.24-4.2-6.4-8.42-8.61-13.32-6.63-14.85-2.75-32.65,9.42-43.44,8.34-7.38,18.03-10.58,29.04-9.59,8.14.73,15.19,4.16,21.13,9.77,8.69,8.2,13.11,18.23,12.44,30.26-.41,7.75-3.2,14.68-7.77,20.9Z"/>
</svg>