<?xml version="1.0" encoding="UTF-8"?>
<svg id="Layer_1" data-name="Layer 1" xmlns="http://www.w3.org/2000/svg" viewBox="0 0 288 288">
  <defs>
    <style>
      .cls-1 {
        fill: #d3b846;
      }
    </style>
  </defs>
  <path class="cls-1" d="M185.65,66.11c-15.4-15.74-34.19-21.49-55.58-16.18-38.98,9.68-55.97,53.99-35.49,87.27,2.81,4.55,6.09,8.82,9.24,13.14,4.01,5.52,6.17,11.55,5.96,18.42-.13,3.85.03,7.7-.03,11.55-.03,2.81.96,5.2,2.73,7.36.49.6.78,1.54.81,2.32.08,7.39,0,14.81.08,22.22.08,6.5,3.75,10.17,10.17,10.41.34,0,.68.05,1.01.08,2.13,11.45,8.66,17.33,19.2,17.3,11.14-.03,17.43-5.52,19.62-17.23.94-.13,1.74-.23,2.55-.34,5.31-.83,8.46-4.24,8.53-9.63.13-7.47.08-14.94.08-22.38,0-1.14.23-2.08,1.12-2.94,1.64-1.61,2.37-3.72,2.39-6.01.03-4.55.05-9.08.05-13.63,0-6.09,1.9-11.55,5.46-16.47,2.21-3.07,4.48-6.11,6.69-9.18,7.05-9.78,11.34-20.63,11.84-32.71.68-16.73-4.74-31.41-16.44-43.37ZM148.21,181.35h-8.66v-4.32c0-8.56-.08-17.12.03-25.68.05-5.72-.16-11.4-2.08-16.7,2.03-.81,3.93-1.59,5.85-2.32.26-.1.65-.05.94.05,1.98.78,3.95,1.61,5.93,2.42-.52,2.37-1.17,4.94-1.61,7.55-.29,1.59-.36,3.25-.36,4.87-.03,10.49-.03,20.97-.03,31.46v2.68ZM164.32,191.58v5.67h-40.85v-5.67h40.85ZM145.35,230.01c-6.04.39-9.78-2.21-10.33-7.36h17.82c.03,4.06-3.07,7.1-7.49,7.36ZM164.34,212.71h-40.8v-5.62h40.8v5.62ZM182.06,136.03c-2.24,3.04-4.48,6.11-6.74,9.16-4.97,6.77-7.16,14.44-7.42,22.74-.13,4.42-.03,8.85-.03,13.4h-9.45c-.08-.57-.21-1.17-.21-1.8,0-10.72-.05-21.47.05-32.19.08-7.96,2.94-14.88,8.3-20.76,1.35-1.48,2.03-3.12,1.46-5.13-1.12-4.01-5.67-5.23-8.72-2.24-1.48,1.46-2.65,3.23-3.88,4.94-.65.91-1.25,1.51-2.39.99-.31-.13-.68-.1-1.04-.16-1.85-.18-2.91-.81-2.99-3.04-.13-2.99-2.45-4.84-5.23-4.79-2.84.05-4.92,1.9-5.07,4.94-.1,1.8-.91,2.32-2.45,2.65-2.78.62-2.76.68-4.48-1.59-.96-1.25-1.87-2.52-2.97-3.67-2.24-2.32-5.44-2.58-7.55-.73-2.11,1.85-2.26,5.13-.1,7.55,6.17,6.9,8.61,14.99,8.46,24.12-.16,9.55-.03,19.12-.03,28.7v2.24h-9.68v-2.03c-.08-5.02-.05-10.02-.31-15.04-.44-8.07-3.67-15.04-8.56-21.39-4.14-5.36-8.17-10.75-10.98-16.99-8.46-18.94-3.51-41.66,12.02-55.42,10.64-9.42,23-13.5,37.05-12.23,10.38.94,19.38,5.31,26.96,12.46,11.08,10.46,16.73,23.26,15.87,38.61-.52,9.89-4.09,18.73-9.91,26.67Z"/>
</svg>